<svg version="1.1" xmlns="http://www.w3.org/2000/svg" xmlns:xlink="http://www.w3.org/1999/xlink" width="2564" height="2979"><defs></defs><g><g transform="translate(-902,-446) scale(1,1)"><rect fill="#C0C0C0" stroke="none" x="1247" y="463" width="1911" height="2639" opacity="0.2"></rect></g><g transform="translate(-902,-446) scale(1,1)"><rect fill="#ffffff" stroke="none" x="1240" y="456" width="1911" height="2639"></rect></g><g transform="translate(-902,-446) scale(1,1)"><path fill="none" stroke="#000000" d="M 1240 456 L 3151 456 L 3151 3095 L 1240 3095 L 1240 456 Z Z" stroke-miterlimit="10"></path></g><g transform="translate(-902,-446) scale(1,1)"><g><path fill="none" stroke="none"></path><text fill="#000000" stroke="none" font-family="Arial" font-size="13px" font-style="normal" font-weight="bold" text-decoration="none" x="2171.5" y="475.5">Sistema</text></g></g><g transform="translate(-902,-446) scale(1,1)"><rect fill="#C0C0C0" stroke="none" x="1351" y="559" width="396.79999999999995" height="15" opacity="0.2"></rect></g><g transform="translate(-902,-446) scale(1,1)"><rect fill="#C0C0C0" stroke="none" x="1351" y="573" width="992" height="681" opacity="0.2"></rect></g><g transform="translate(-902,-446) scale(1,1)"><rect fill="#ffffff" stroke="none" x="1344" y="567" width="992" height="680"></rect></g><g transform="translate(-902,-446) scale(1,1)"><path fill="none" stroke="#000000" d="M 1344 567 L 2336 567 L 2336 1247 L 1344 1247 L 1344 567 Z Z" stroke-miterlimit="10"></path></g><g transform="translate(-902,-446) scale(1,1)"><rect fill="#ffffff" stroke="none" x="1344" y="552" width="396.79999999999995" height="15"></rect></g><g transform="translate(-902,-446) scale(1,1)"><path fill="none" stroke="#000000" d="M 1344 552 L 1740.8 552 L 1740.8 567 L 1344 567 L 1344 552 Z Z" stroke-miterlimit="10"></path></g><g transform="translate(-902,-446) scale(1,1)"><rect fill="#ffffff" stroke="none" x="1344" y="566" width="992" height="681"></rect></g><g transform="translate(-902,-446) scale(1,1)"><path fill="none" stroke="#000000" d="M 1344 566 L 2336 566 L 2336 1247 L 1344 1247 L 1344 566 Z Z" stroke-miterlimit="10"></path></g><g transform="translate(-902,-446) scale(1,1)"><g><path fill="none" stroke="none"></path><text fill="#000000" stroke="none" font-family="Arial" font-size="13px" font-style="normal" font-weight="bold" text-decoration="none" x="1784" y="586.5">Sistema de usuario</text></g></g><g transform="translate(-902,-446) scale(1,1)"><rect fill="#C0C0C0" stroke="none" x="1351" y="1263" width="643.2" height="15" opacity="0.2"></rect></g><g transform="translate(-902,-446) scale(1,1)"><rect fill="#C0C0C0" stroke="none" x="1351" y="1277" width="1608" height="1074" opacity="0.2"></rect></g><g transform="translate(-902,-446) scale(1,1)"><rect fill="#ffffff" stroke="none" x="1344" y="1271" width="1608" height="1073"></rect></g><g transform="translate(-902,-446) scale(1,1)"><path fill="none" stroke="#000000" d="M 1344 1271 L 2952 1271 L 2952 2344 L 1344 2344 L 1344 1271 Z Z" stroke-miterlimit="10"></path></g><g transform="translate(-902,-446) scale(1,1)"><rect fill="#ffffff" stroke="none" x="1344" y="1256" width="643.2" height="15"></rect></g><g transform="translate(-902,-446) scale(1,1)"><path fill="none" stroke="#000000" d="M 1344 1256 L 1987.2 1256 L 1987.2 1271 L 1344 1271 L 1344 1256 Z Z" stroke-miterlimit="10"></path></g><g transform="translate(-902,-446) scale(1,1)"><rect fill="#ffffff" stroke="none" x="1344" y="1270" width="1608" height="1074"></rect></g><g transform="translate(-902,-446) scale(1,1)"><path fill="none" stroke="#000000" d="M 1344 1270 L 2952 1270 L 2952 2344 L 1344 2344 L 1344 1270 Z Z" stroke-miterlimit="10"></path></g><g transform="translate(-902,-446) scale(1,1)"><path fill="none" stroke="#000000" d="M 2923 1276 L 2947 1276 L 2947 1300 L 2923 1300 L 2923 1276 Z Z" stroke-miterlimit="10"></path></g><g transform="translate(-902,-446) scale(1,1)"><path fill="none" stroke="#000000" d="M 2923 1276 L 2947 1300" stroke-miterlimit="10"></path></g><g transform="translate(-902,-446) scale(1,1)"><path fill="none" stroke="#000000" d="M 2947 1276 L 2923 1300" stroke-miterlimit="10"></path></g><g transform="translate(-902,-446) scale(1,1)"><g><path fill="none" stroke="none"></path><text fill="#000000" stroke="none" font-family="Arial" font-size="13px" font-style="normal" font-weight="normal" text-decoration="none" x="2136" y="1288.5"></text></g></g><g transform="translate(-902,-446) scale(1,1)"><g><path fill="none" stroke="none"></path><text fill="#000000" stroke="none" font-family="Arial" font-size="13px" font-style="normal" font-weight="bold" text-decoration="none" x="2117.5" y="1303.5">Wallet</text></g></g><g transform="translate(-902,-446) scale(1,1)"><path fill="#ffffff" stroke="none" d="M 942.7294545454545 635.69 C 942.7294545454545 616.531240288 957.6251834577454 601 976 601 C 994.3748165422546 601 1009.2705454545455 616.531240288 1009.2705454545455 635.69 C 1009.2705454545455 654.8487597120001 994.3748165422546 670.38 976 670.38 C 957.6251834577454 670.38 942.7294545454545 654.8487597120001 942.7294545454545 635.69 Z"></path></g><g transform="translate(-902,-446) scale(1,1)"><path fill="none" stroke="#000000" d="M 942.7294545454545 635.69 C 942.7294545454545 616.531240288 957.6251834577454 601 976 601 C 994.3748165422546 601 1009.2705454545455 616.531240288 1009.2705454545455 635.69 C 1009.2705454545455 654.8487597120001 994.3748165422546 670.38 976 670.38 C 957.6251834577454 670.38 942.7294545454545 654.8487597120001 942.7294545454545 635.69 Z" stroke-miterlimit="10"></path></g><g transform="translate(-902,-446) scale(1,1)"><path fill="none" stroke="#000000" d="M 976 670.38 L 976 736.62" stroke-miterlimit="10"></path></g><g transform="translate(-902,-446) scale(1,1)"><path fill="none" stroke="#000000" d="M 940.7723636363636 695.22 L 1011.2276363636364 695.22" stroke-miterlimit="10"></path></g><g transform="translate(-902,-446) scale(1,1)"><path fill="none" stroke="#000000" d="M 976 736.62 L 927.0727272727272 806" stroke-miterlimit="10"></path></g><g transform="translate(-902,-446) scale(1,1)"><path fill="none" stroke="#000000" d="M 976 736.62 L 1024.9272727272728 806" stroke-miterlimit="10"></path></g><g transform="translate(-902,-446) scale(1,1)"><g><path fill="none" stroke="none"></path><text fill="#000000" stroke="none" font-family="Arial" font-size="13px" font-style="normal" font-weight="bold" text-decoration="none" x="954.5" y="826.5">Invitado</text></g></g><g transform="translate(-902,-446) scale(1,1)"><path fill="none" stroke="#000000" d="M 1041 714 L 1655 695" stroke-miterlimit="10"></path></g><g transform="translate(-902,-446) scale(1,1)"><path fill="none" stroke="#000000" d="M 1644.9723870135801 699.5218334549807 L 1655 695 L 1644.7119877587752 691.1068259576012" stroke-miterlimit="10"></path></g><g transform="translate(-902,-446) scale(1,1)"><path fill="#ffffff" stroke="none" d="M 3355.8727272727274 1270.25 C 3355.8727272727274 1254.0956696 3368.465734807273 1241 3384 1241 C 3399.534265192727 1241 3412.1272727272726 1254.0956696 3412.1272727272726 1270.25 C 3412.1272727272726 1286.4043304 3399.534265192727 1299.5 3384 1299.5 C 3368.465734807273 1299.5 3355.8727272727274 1286.4043304 3355.8727272727274 1270.25 Z"></path></g><g transform="translate(-902,-446) scale(1,1)"><path fill="none" stroke="#000000" d="M 3355.8727272727274 1270.25 C 3355.8727272727274 1254.0956696 3368.465734807273 1241 3384 1241 C 3399.534265192727 1241 3412.1272727272726 1254.0956696 3412.1272727272726 1270.25 C 3412.1272727272726 1286.4043304 3399.534265192727 1299.5 3384 1299.5 C 3368.465734807273 1299.5 3355.8727272727274 1286.4043304 3355.8727272727274 1270.25 Z" stroke-miterlimit="10"></path></g><g transform="translate(-902,-446) scale(1,1)"><path fill="none" stroke="#000000" d="M 3384 1299.5 L 3384 1355.5" stroke-miterlimit="10"></path></g><g transform="translate(-902,-446) scale(1,1)"><path fill="none" stroke="#000000" d="M 3354.218181818182 1320.5 L 3413.781818181818 1320.5" stroke-miterlimit="10"></path></g><g transform="translate(-902,-446) scale(1,1)"><path fill="none" stroke="#000000" d="M 3384 1355.5 L 3342.636363636364 1414" stroke-miterlimit="10"></path></g><g transform="translate(-902,-446) scale(1,1)"><path fill="none" stroke="#000000" d="M 3384 1355.5 L 3425.363636363636 1414" stroke-miterlimit="10"></path></g><g transform="translate(-902,-446) scale(1,1)"><g><path fill="none" stroke="none"></path><text fill="#000000" stroke="none" font-family="Arial" font-size="13px" font-style="normal" font-weight="bold" text-decoration="none" x="3358" y="1434.5">Sistema </text></g></g><g transform="translate(-902,-446) scale(1,1)"><path fill="#ffffff" stroke="none" d="M 1102.586909090909 1375.6100000000001 C 1102.586909090909 1358.7045622720002 1115.755596969891 1345 1132 1345 C 1148.244403030109 1345 1161.413090909091 1358.7045622720002 1161.413090909091 1375.6100000000001 C 1161.413090909091 1392.515437728 1148.244403030109 1406.22 1132 1406.22 C 1115.755596969891 1406.22 1102.586909090909 1392.515437728 1102.586909090909 1375.6100000000001 Z"></path></g><g transform="translate(-902,-446) scale(1,1)"><path fill="none" stroke="#000000" d="M 1102.586909090909 1375.6100000000001 C 1102.586909090909 1358.7045622720002 1115.755596969891 1345 1132 1345 C 1148.244403030109 1345 1161.413090909091 1358.7045622720002 1161.413090909091 1375.6100000000001 C 1161.413090909091 1392.515437728 1148.244403030109 1406.22 1132 1406.22 C 1115.755596969891 1406.22 1102.586909090909 1392.515437728 1102.586909090909 1375.6100000000001 Z" stroke-miterlimit="10"></path></g><g transform="translate(-902,-446) scale(1,1)"><path fill="none" stroke="#000000" d="M 1132 1406.22 L 1132 1464.78" stroke-miterlimit="10"></path></g><g transform="translate(-902,-446) scale(1,1)"><path fill="none" stroke="#000000" d="M 1100.8567272727273 1428.18 L 1163.1432727272727 1428.18" stroke-miterlimit="10"></path></g><g transform="translate(-902,-446) scale(1,1)"><path fill="none" stroke="#000000" d="M 1132 1464.78 L 1088.7454545454545 1526" stroke-miterlimit="10"></path></g><g transform="translate(-902,-446) scale(1,1)"><path fill="none" stroke="#000000" d="M 1132 1464.78 L 1175.2545454545455 1526" stroke-miterlimit="10"></path></g><g transform="translate(-902,-446) scale(1,1)"><g><path fill="none" stroke="none"></path><text fill="#000000" stroke="none" font-family="Arial" font-size="13px" font-style="normal" font-weight="bold" text-decoration="none" x="1110" y="1546.5">Usuario</text></g></g><g transform="translate(-902,-446) scale(1,1)"><path fill="#C0C0C0" stroke="none" d="M 1559 851 C 1559 822.2811904 1618.0984064 799 1691 799 C 1763.9015936 799 1823 822.2811904 1823 851 C 1823 879.7188096 1763.9015936 903 1691 903 C 1618.0984064 903 1559 879.7188096 1559 851 Z" opacity="0.2"></path></g><g transform="translate(-902,-446) scale(1,1)"><path fill="#ffffff" stroke="none" d="M 1552 844 C 1552 815.2811904 1611.0984064 792 1684 792 C 1756.9015936 792 1816 815.2811904 1816 844 C 1816 872.7188096 1756.9015936 896 1684 896 C 1611.0984064 896 1552 872.7188096 1552 844 Z"></path></g><g transform="translate(-902,-446) scale(1,1)"><path fill="none" stroke="#000000" d="M 1552 844 C 1552 815.2811904 1611.0984064 792 1684 792 C 1756.9015936 792 1816 815.2811904 1816 844 C 1816 872.7188096 1756.9015936 896 1684 896 C 1611.0984064 896 1552 872.7188096 1552 844 Z" stroke-miterlimit="10"></path></g><g transform="translate(-902,-446) scale(1,1)"><g><path fill="none" stroke="none"></path><text fill="#000000" stroke="none" font-family="Arial" font-size="13px" font-style="normal" font-weight="bold" text-decoration="none" x="1646" y="851">Iniciar sesión</text></g></g><g transform="translate(-902,-446) scale(1,1)"><path fill="none" stroke="#000000" d="M 3311 1308 L 2274 856" stroke-miterlimit="10"></path></g><g transform="translate(-902,-446) scale(1,1)"><path fill="none" stroke="#000000" d="M 2284.9981491503627 856.2017802427931 L 2274 856 L 2281.634185666734 863.9195460227108" stroke-miterlimit="10"></path></g><g transform="translate(-902,-446) scale(1,1)"><path fill="none" stroke="#000000" d="M 1817 832 L 1991 817" stroke-miterlimit="10" stroke-dasharray="3"></path></g><g transform="translate(-902,-446) scale(1,1)"><path fill="none" stroke="#000000" d="M 1981.2364270751352 822.0668179107648 L 1991 817 L 1980.5133300724794 813.678892679958" stroke-miterlimit="10"></path></g><g transform="translate(-902,-446) scale(1,1)"><g><path fill="none" stroke="none"></path><text fill="#000000" stroke="none" font-family="Arial" font-size="13px" font-style="normal" font-weight="normal" text-decoration="none" x="1873.5" y="800.5">«include»</text></g></g><g transform="translate(-902,-446) scale(1,1)"><path fill="none" stroke="#000000" d="M 1790 897 L 1913 959" stroke-miterlimit="10" stroke-dasharray="3"></path></g><g transform="translate(-902,-446) scale(1,1)"><path fill="none" stroke="#000000" d="M 1902.030263271854 958.1846006406903 L 1913 959 L 1905.8197991880397 950.6666503553537" stroke-miterlimit="10"></path></g><g transform="translate(-902,-446) scale(1,1)"><g><path fill="none" stroke="none"></path><text fill="#000000" stroke="none" font-family="Arial" font-size="13px" font-style="normal" font-weight="normal" text-decoration="none" x="1837.5" y="907.5">«extend»</text></g></g><g transform="translate(-902,-446) scale(1,1)"><path fill="none" stroke="#000000" d="M 3311 1322 L 2151 1040" stroke-miterlimit="10"></path></g><g transform="translate(-902,-446) scale(1,1)"><path fill="none" stroke="#000000" d="M 2161.8694451579745 1038.3102775500734 L 2151 1040 L 2159.8806725816053 1046.4910441762727" stroke-miterlimit="10"></path></g><g transform="translate(-902,-446) scale(1,1)"><path fill="none" stroke="#000000" d="M 1193 1416 L 1562 1225" stroke-miterlimit="10"></path></g><g transform="translate(-902,-446) scale(1,1)"><path fill="none" stroke="#000000" d="M 1554.9097612520022 1233.4100246430312 L 1562 1225 L 1551.0396586460258 1225.9332295560926" stroke-miterlimit="10"></path></g><g transform="translate(-902,-446) scale(1,1)"><path fill="#C0C0C0" stroke="none" d="M 1359 1039 C 1359 1008.0720512 1428.8435712 983 1515 983 C 1601.1564288 983 1671 1008.0720512 1671 1039 C 1671 1069.9279488 1601.1564288 1095 1515 1095 C 1428.8435712 1095 1359 1069.9279488 1359 1039 Z" opacity="0.2"></path></g><g transform="translate(-902,-446) scale(1,1)"><path fill="#ffffff" stroke="none" d="M 1352 1032 C 1352 1001.0720512 1421.8435712 976 1508 976 C 1594.1564288 976 1664 1001.0720512 1664 1032 C 1664 1062.9279488 1594.1564288 1088 1508 1088 C 1421.8435712 1088 1352 1062.9279488 1352 1032 Z"></path></g><g transform="translate(-902,-446) scale(1,1)"><path fill="none" stroke="#000000" d="M 1352 1032 C 1352 1001.0720512 1421.8435712 976 1508 976 C 1594.1564288 976 1664 1001.0720512 1664 1032 C 1664 1062.9279488 1594.1564288 1088 1508 1088 C 1421.8435712 1088 1352 1062.9279488 1352 1032 Z" stroke-miterlimit="10"></path></g><g transform="translate(-902,-446) scale(1,1)"><g><path fill="none" stroke="none"></path><text fill="#000000" stroke="none" font-family="Arial" font-size="13px" font-style="normal" font-weight="bold" text-decoration="none" x="1413" y="1039">Configurar métodos de seguridad</text></g></g><g transform="translate(-902,-446) scale(1,1)"><path fill="none" stroke="#000000" d="M 1193 1381 L 1456 1089" stroke-miterlimit="10"></path></g><g transform="translate(-902,-446) scale(1,1)"><path fill="none" stroke="#000000" d="M 1452.326516328171 1099.368486760989 L 1456 1089 L 1446.0708274857334 1093.73408208441" stroke-miterlimit="10"></path></g><g transform="translate(-902,-446) scale(1,1)"><path fill="#C0C0C0" stroke="none" d="M 1423 1387 C 1423 1345.0263552 1485.680128 1311 1563 1311 C 1640.319872 1311 1703 1345.0263552 1703 1387 C 1703 1428.9736448 1640.319872 1463 1563 1463 C 1485.680128 1463 1423 1428.9736448 1423 1387 Z" opacity="0.2"></path></g><g transform="translate(-902,-446) scale(1,1)"><path fill="#ffffff" stroke="none" d="M 1416 1380 C 1416 1338.0263552 1478.680128 1304 1556 1304 C 1633.319872 1304 1696 1338.0263552 1696 1380 C 1696 1421.9736448 1633.319872 1456 1556 1456 C 1478.680128 1456 1416 1421.9736448 1416 1380 Z"></path></g><g transform="translate(-902,-446) scale(1,1)"><path fill="none" stroke="#000000" d="M 1416 1380 C 1416 1338.0263552 1478.680128 1304 1556 1304 C 1633.319872 1304 1696 1338.0263552 1696 1380 C 1696 1421.9736448 1633.319872 1456 1556 1456 C 1478.680128 1456 1416 1421.9736448 1416 1380 Z" stroke-miterlimit="10"></path></g><g transform="translate(-902,-446) scale(1,1)"><g><path fill="none" stroke="none"></path><text fill="#000000" stroke="none" font-family="Arial" font-size="13px" font-style="normal" font-weight="bold" text-decoration="none" x="1522" y="1387">Crear wallet</text></g></g><g transform="translate(-902,-446) scale(1,1)"><path fill="none" stroke="#000000" d="M 1193 1438 L 1415 1403" stroke-miterlimit="10"></path></g><g transform="translate(-902,-446) scale(1,1)"><path fill="none" stroke="#000000" d="M 1405.6168851440964 1408.7408323090751 L 1415 1403 L 1404.3057544013363 1400.4245173121403" stroke-miterlimit="10"></path></g><g transform="translate(-902,-446) scale(1,1)"><path fill="#C0C0C0" stroke="none" d="M 1903 1383 C 1903 1356.4903296 1958.5166848 1335 2027 1335 C 2095.4833152 1335 2151 1356.4903296 2151 1383 C 2151 1409.5096704 2095.4833152 1431 2027 1431 C 1958.5166848 1431 1903 1409.5096704 1903 1383 Z" opacity="0.2"></path></g><g transform="translate(-902,-446) scale(1,1)"><path fill="#ffffff" stroke="none" d="M 1896 1376 C 1896 1349.4903296 1951.5166848 1328 2020 1328 C 2088.4833152 1328 2144 1349.4903296 2144 1376 C 2144 1402.5096704 2088.4833152 1424 2020 1424 C 1951.5166848 1424 1896 1402.5096704 1896 1376 Z"></path></g><g transform="translate(-902,-446) scale(1,1)"><path fill="none" stroke="#000000" d="M 1896 1376 C 1896 1349.4903296 1951.5166848 1328 2020 1328 C 2088.4833152 1328 2144 1349.4903296 2144 1376 C 2144 1402.5096704 2088.4833152 1424 2020 1424 C 1951.5166848 1424 1896 1402.5096704 1896 1376 Z" stroke-miterlimit="10"></path></g><g transform="translate(-902,-446) scale(1,1)"><g><path fill="none" stroke="none"></path><text fill="#000000" stroke="none" font-family="Arial" font-size="13px" font-style="normal" font-weight="bold" text-decoration="none" x="2000" y="1383">Bitcoin</text></g></g><g transform="translate(-902,-446) scale(1,1)"><path fill="none" stroke="#000000" d="M 2145 1375 L 2375 1374" stroke-miterlimit="10" stroke-dasharray="3"></path></g><g transform="translate(-902,-446) scale(1,1)"><path fill="none" stroke="#000000" d="M 2364.8557232746684 1378.25366309431 L 2375 1374 L 2364.8191191184155 1369.8347071561548" stroke-miterlimit="10"></path></g><g transform="translate(-902,-446) scale(1,1)"><g><path fill="none" stroke="none"></path><text fill="#000000" stroke="none" font-family="Arial" font-size="13px" font-style="normal" font-weight="normal" text-decoration="none" x="2232.5" y="1350.5">«include»</text></g></g><g transform="translate(-902,-446) scale(1,1)"><path fill="none" stroke="#000000" d="M 2129 1485 L 2379 1425" stroke-miterlimit="10" stroke-dasharray="3"></path></g><g transform="translate(-902,-446) scale(1,1)"><path fill="none" stroke="#000000" d="M 2370.1003316015085 1431.464975049982 L 2379 1425 L 2368.1355564270707 1423.278411823159" stroke-miterlimit="10"></path></g><g transform="translate(-902,-446) scale(1,1)"><g><path fill="none" stroke="none"></path><text fill="#000000" stroke="none" font-family="Arial" font-size="13px" font-style="normal" font-weight="normal" text-decoration="none" x="2218.5" y="1431.5">«include»</text></g></g><g transform="translate(-902,-446) scale(1,1)"><path fill="none" stroke="#000000" d="M 3311 1343 L 2825 1363" stroke-miterlimit="10"></path></g><g transform="translate(-902,-446) scale(1,1)"><path fill="none" stroke="#000000" d="M 2834.980995797362 1358.3761787563708 L 2825 1363 L 2835.327165167674 1366.7880944549447" stroke-miterlimit="10"></path></g><g transform="translate(-902,-446) scale(1,1)"><path fill="none" stroke="#000000" d="M 1193 1470 L 1383 1538" stroke-miterlimit="10"></path></g><g transform="translate(-902,-446) scale(1,1)"><path fill="none" stroke="#000000" d="M 1372.0132074244466 1538.5388774459602 L 1383 1538 L 1374.850120570069 1530.6122083626033" stroke-miterlimit="10"></path></g><g transform="translate(-902,-446) scale(1,1)"><path fill="none" stroke="#000000" d="M 2121 1625 L 2295 1592" stroke-miterlimit="10" stroke-dasharray="3"></path></g><g transform="translate(-902,-446) scale(1,1)"><path fill="none" stroke="#000000" d="M 2285.7996837145793 1598.0294427809065 L 2295 1592 L 2284.230934088363 1589.7578538426733" stroke-miterlimit="10"></path></g><g transform="translate(-902,-446) scale(1,1)"><g><path fill="none" stroke="none"></path><text fill="#000000" stroke="none" font-family="Arial" font-size="13px" font-style="normal" font-weight="normal" text-decoration="none" x="2174.5" y="1584.5">«include»</text></g></g><g transform="translate(-902,-446) scale(1,1)"><path fill="none" stroke="#000000" d="M 2121 1680 L 2319 1731" stroke-miterlimit="10" stroke-dasharray="3"></path></g><g transform="translate(-902,-446) scale(1,1)"><path fill="none" stroke="#000000" d="M 2308.1085517671104 1732.5415431846964 L 2319 1731 L 2310.208547458191 1724.3886187369721" stroke-miterlimit="10"></path></g><g transform="translate(-902,-446) scale(1,1)"><g><path fill="none" stroke="none"></path><text fill="#000000" stroke="none" font-family="Arial" font-size="13px" font-style="normal" font-weight="normal" text-decoration="none" x="2199.5" y="1681.5">«include»</text></g></g><g transform="translate(-902,-446) scale(1,1)"><path fill="none" stroke="#000000" d="M 2073 1777 L 2319 1778" stroke-miterlimit="10" stroke-dasharray="3"></path></g><g transform="translate(-902,-446) scale(1,1)"><path fill="none" stroke="#000000" d="M 2308.820297388762 1782.1681716311534 L 2319 1778 L 2308.854520827593 1773.7492056786691" stroke-miterlimit="10"></path></g><g transform="translate(-902,-446) scale(1,1)"><g><path fill="none" stroke="none"></path><text fill="#000000" stroke="none" font-family="Arial" font-size="13px" font-style="normal" font-weight="normal" text-decoration="none" x="2168.5" y="1753.5">«include»</text></g></g><g transform="translate(-902,-446) scale(1,1)"><path fill="none" stroke="#000000" d="M 2073 1732 L 2405 1601" stroke-miterlimit="10" stroke-dasharray="3"></path></g><g transform="translate(-902,-446) scale(1,1)"><path fill="none" stroke="#000000" d="M 2397.091680154866 1608.6458143599657 L 2405 1601 L 2394.0015662280884 1600.8143805913387" stroke-miterlimit="10"></path></g><g transform="translate(-902,-446) scale(1,1)"><g><path fill="none" stroke="none"></path><text fill="#000000" stroke="none" font-family="Arial" font-size="13px" font-style="normal" font-weight="normal" text-decoration="none" x="2200.5" y="1644.5">«include»</text></g></g><g transform="translate(-902,-446) scale(1,1)"><path fill="none" stroke="#000000" d="M 3311 1358 L 2783 1487" stroke-miterlimit="10"></path></g><g transform="translate(-902,-446) scale(1,1)"><path fill="none" stroke="#000000" d="M 2791.873223923028 1480.4987772525624 L 2783 1487 L 2793.8713754976775 1488.6772581162425" stroke-miterlimit="10"></path></g><g transform="translate(-902,-446) scale(1,1)"><path fill="none" stroke="#000000" d="M 3311 1376 L 2624 1719" stroke-miterlimit="10"></path></g><g transform="translate(-902,-446) scale(1,1)"><path fill="none" stroke="#000000" d="M 2631.2120577649284 1710.6942054687506 L 2624 1719 L 2634.9727785880787 1718.2266113157013" stroke-miterlimit="10"></path></g><g transform="translate(-902,-446) scale(1,1)"><path fill="none" stroke="#000000" d="M 3311 1396 L 2589 1951" stroke-miterlimit="10"></path></g><g transform="translate(-902,-446) scale(1,1)"><path fill="none" stroke="#000000" d="M 2594.4917825390007 1941.468980928341 L 2589 1951 L 2599.622724891318 1948.1438284569408" stroke-miterlimit="10"></path></g><g transform="translate(-902,-446) scale(1,1)"><path fill="none" stroke="#000000" d="M 1713 791 L 1737 745" stroke-miterlimit="10" stroke-dasharray="3"></path></g><g transform="translate(-902,-446) scale(1,1)"><path fill="none" stroke="#000000" d="M 1736.031186725917 755.9572533437884 L 1737 745 L 1728.5669974216207 752.0628937067642" stroke-miterlimit="10"></path></g><g transform="translate(-902,-446) scale(1,1)"><path fill="none" stroke="#000000" d="M 1193 1508 L 1898 2207" stroke-miterlimit="10"></path></g><g transform="translate(-902,-446) scale(1,1)"><path fill="none" stroke="#000000" d="M 1887.8194287128977 2202.83395052019 L 1898 2207 L 1893.7470908444695 2196.8554071686044" stroke-miterlimit="10"></path></g><g transform="translate(-902,-446) scale(1,1)"><path fill="none" stroke="#000000" d="M 1997 2207 L 2104 2056" stroke-miterlimit="10" stroke-dasharray="3"></path></g><g transform="translate(-902,-446) scale(1,1)"><path fill="none" stroke="#000000" d="M 2101.5588966524247 2066.7257174327156 L 2104 2056 L 2094.6896517395885 2061.8581067991163" stroke-miterlimit="10"></path></g><g transform="translate(-902,-446) scale(1,1)"><g><path fill="none" stroke="none"></path><text fill="#000000" stroke="none" font-family="Arial" font-size="13px" font-style="normal" font-weight="normal" text-decoration="none" x="1997.5" y="2119.5">«include»</text></g></g><g transform="translate(-902,-446) scale(1,1)"><path fill="none" stroke="#000000" d="M 2057 2229 L 2231 2170" stroke-miterlimit="10" stroke-dasharray="3"></path></g><g transform="translate(-902,-446) scale(1,1)"><path fill="none" stroke="#000000" d="M 2222.7273313333667 2177.2500312504226 L 2231 2170 L 2220.023793626326 2169.2768861483023" stroke-miterlimit="10"></path></g><g transform="translate(-902,-446) scale(1,1)"><g><path fill="none" stroke="none"></path><text fill="#000000" stroke="none" font-family="Arial" font-size="13px" font-style="normal" font-weight="normal" text-decoration="none" x="2106.5" y="2176.5">«include»</text></g></g><g transform="translate(-902,-446) scale(1,1)"><path fill="none" stroke="#000000" d="M 1697 1379 L 1895 1377" stroke-miterlimit="10" stroke-dasharray="3"></path></g><g transform="translate(-902,-446) scale(1,1)"><path fill="none" stroke="#000000" d="M 1884.880361765976 1381.3119510679599 L 1895 1377 L 1884.795325341268 1372.893345021866" stroke-miterlimit="10"></path></g><g transform="translate(-902,-446) scale(1,1)"><g><path fill="none" stroke="none"></path><text fill="#000000" stroke="none" font-family="Arial" font-size="13px" font-style="normal" font-weight="normal" text-decoration="none" x="1767.5" y="1354.5">«include»</text></g></g><g transform="translate(-902,-446) scale(1,1)"><path fill="none" stroke="#000000" d="M 1697 1420 L 1903 1480" stroke-miterlimit="10" stroke-dasharray="3"></path></g><g transform="translate(-902,-446) scale(1,1)"><path fill="none" stroke="#000000" d="M 1892.0656137073386 1481.1996651211305 L 1903 1480 L 1894.4199299620416 1473.11651264665" stroke-miterlimit="10"></path></g><g transform="translate(-902,-446) scale(1,1)"><g><path fill="none" stroke="none"></path><text fill="#000000" stroke="none" font-family="Arial" font-size="13px" font-style="normal" font-weight="normal" text-decoration="none" x="1780.5" y="1427.5">«include»</text></g></g><g transform="translate(-902,-446) scale(1,1)"><path fill="none" stroke="#000000" d="M 1704 1614 L 1871 1633" stroke-miterlimit="10" stroke-dasharray="3"></path></g><g transform="translate(-902,-446) scale(1,1)"><path fill="none" stroke="#000000" d="M 1860.426609833769 1636.033713960255 L 1871 1633 L 1861.3783243998503 1627.6686438268034" stroke-miterlimit="10"></path></g><g transform="translate(-902,-446) scale(1,1)"><g><path fill="none" stroke="none"></path><text fill="#000000" stroke="none" font-family="Arial" font-size="13px" font-style="normal" font-weight="normal" text-decoration="none" x="1762.5" y="1599.5">«include»</text></g></g><g transform="translate(-902,-446) scale(1,1)"><path fill="none" stroke="#000000" d="M 1684 1656 L 1847 1727" stroke-miterlimit="10" stroke-dasharray="3"></path></g><g transform="translate(-902,-446) scale(1,1)"><path fill="none" stroke="#000000" d="M 1836.0018020159198 1726.8008992642588 L 1847 1727 L 1839.3638851050064 1719.082314144243" stroke-miterlimit="10"></path></g><g transform="translate(-902,-446) scale(1,1)"><g><path fill="none" stroke="none"></path><text fill="#000000" stroke="none" font-family="Arial" font-size="13px" font-style="normal" font-weight="normal" text-decoration="none" x="1749.5" y="1669.5">«include»</text></g></g><g transform="translate(-902,-446) scale(1,1)"><path fill="#C0C0C0" stroke="none" d="M 1911 1519 C 1911 1492.4903296 1961.1441024 1471 2023 1471 C 2084.8558976 1471 2135 1492.4903296 2135 1519 C 2135 1545.5096704 2084.8558976 1567 2023 1567 C 1961.1441024 1567 1911 1545.5096704 1911 1519 Z" opacity="0.2"></path></g><g transform="translate(-902,-446) scale(1,1)"><path fill="#ffffff" stroke="none" d="M 1904 1512 C 1904 1485.4903296 1954.1441024 1464 2016 1464 C 2077.8558976 1464 2128 1485.4903296 2128 1512 C 2128 1538.5096704 2077.8558976 1560 2016 1560 C 1954.1441024 1560 1904 1538.5096704 1904 1512 Z"></path></g><g transform="translate(-902,-446) scale(1,1)"><path fill="none" stroke="#000000" d="M 1904 1512 C 1904 1485.4903296 1954.1441024 1464 2016 1464 C 2077.8558976 1464 2128 1485.4903296 2128 1512 C 2128 1538.5096704 2077.8558976 1560 2016 1560 C 1954.1441024 1560 1904 1538.5096704 1904 1512 Z" stroke-miterlimit="10"></path></g><g transform="translate(-902,-446) scale(1,1)"><g><path fill="none" stroke="none"></path><text fill="#000000" stroke="none" font-family="Arial" font-size="13px" font-style="normal" font-weight="bold" text-decoration="none" x="1988" y="1519">Ethereum</text></g></g><g transform="translate(-902,-446) scale(1,1)"><path fill="none" stroke="#000000" d="M 1041 728 L 1551 820" stroke-miterlimit="10"></path></g><g transform="translate(-902,-446) scale(1,1)"><path fill="none" stroke="#000000" d="M 1540.2514471906345 822.3385064687272 L 1551 820 L 1541.7460516386702 814.0531992024415" stroke-miterlimit="10"></path></g><g transform="translate(-902,-446) scale(1,1)"><path fill="none" stroke="#000000" d="M 2375 1953 L 2073 1824" stroke-miterlimit="10" stroke-dasharray="3"></path></g><g transform="translate(-902,-446) scale(1,1)"><path fill="none" stroke="#000000" d="M 2083.999335331057 1824.1209225990478 L 2073 1824 L 2080.69219941135 1831.8632097909206" stroke-miterlimit="10"></path></g><g transform="translate(-902,-446) scale(1,1)"><g><path fill="none" stroke="none"></path><text fill="#000000" stroke="none" font-family="Arial" font-size="13px" font-style="normal" font-weight="normal" text-decoration="none" x="2185.5" y="1921.5">«extend»</text></g></g><g transform="translate(-902,-446) scale(1,1)"><path fill="#C0C0C0" stroke="none" d="M 2383 2018.5 C 2383 1985.6390544 2443.6654096 1959 2518.5 1959 C 2593.3345904 1959 2654 1985.6390544 2654 2018.5 C 2654 2051.3609456 2593.3345904 2078 2518.5 2078 C 2443.6654096 2078 2383 2051.3609456 2383 2018.5 Z" opacity="0.2"></path></g><g transform="translate(-902,-446) scale(1,1)"><path fill="#ffffff" stroke="none" d="M 2376 2011.5 C 2376 1978.6390544 2436.6654096 1952 2511.5 1952 C 2586.3345904 1952 2647 1978.6390544 2647 2011.5 C 2647 2044.3609456 2586.3345904 2071 2511.5 2071 C 2436.6654096 2071 2376 2044.3609456 2376 2011.5 Z"></path></g><g transform="translate(-902,-446) scale(1,1)"><path fill="none" stroke="#000000" d="M 2376 2011.5 C 2376 1978.6390544 2436.6654096 1952 2511.5 1952 C 2586.3345904 1952 2647 1978.6390544 2647 2011.5 C 2647 2044.3609456 2586.3345904 2071 2511.5 2071 C 2436.6654096 2071 2376 2044.3609456 2376 2011.5 Z" stroke-miterlimit="10"></path></g><g transform="translate(-902,-446) scale(1,1)"><g><path fill="none" stroke="none"></path><text fill="#000000" stroke="none" font-family="Arial" font-size="13px" font-style="normal" font-weight="bold" text-decoration="none" x="2448" y="2018.5">Ingresar una comisión</text></g></g><g transform="translate(-902,-446) scale(1,1)"><path fill="#C0C0C0" stroke="none" d="M 2383 1379 C 2383 1350.2811904 2483.2882048 1327 2607 1327 C 2730.7117952 1327 2831 1350.2811904 2831 1379 C 2831 1407.7188096 2730.7117952 1431 2607 1431 C 2483.2882048 1431 2383 1407.7188096 2383 1379 Z" opacity="0.2"></path></g><g transform="translate(-902,-446) scale(1,1)"><path fill="#ffffff" stroke="none" d="M 2376 1372 C 2376 1343.2811904 2476.2882048 1320 2600 1320 C 2723.7117952 1320 2824 1343.2811904 2824 1372 C 2824 1400.7188096 2723.7117952 1424 2600 1424 C 2476.2882048 1424 2376 1400.7188096 2376 1372 Z"></path></g><g transform="translate(-902,-446) scale(1,1)"><path fill="none" stroke="#000000" d="M 2376 1372 C 2376 1343.2811904 2476.2882048 1320 2600 1320 C 2723.7117952 1320 2824 1343.2811904 2824 1372 C 2824 1400.7188096 2723.7117952 1424 2600 1424 C 2476.2882048 1424 2376 1400.7188096 2376 1372 Z" stroke-miterlimit="10"></path></g><g transform="translate(-902,-446) scale(1,1)"><g><path fill="none" stroke="none"></path><text fill="#000000" stroke="none" font-family="Arial" font-size="13px" font-style="normal" font-weight="bold" text-decoration="none" x="2512.5" y="1379">Solo una dirección por usuario</text></g></g><g transform="translate(-902,-446) scale(1,1)"><path fill="#C0C0C0" stroke="none" d="M 2303 1551 C 2303 1520.0720512 2416.9435184 1495 2557.5 1495 C 2698.0564816 1495 2812 1520.0720512 2812 1551 C 2812 1581.9279488 2698.0564816 1607 2557.5 1607 C 2416.9435184 1607 2303 1581.9279488 2303 1551 Z" opacity="0.2"></path></g><g transform="translate(-902,-446) scale(1,1)"><path fill="#ffffff" stroke="none" d="M 2296 1544 C 2296 1513.0720512 2409.9435184 1488 2550.5 1488 C 2691.0564816 1488 2805 1513.0720512 2805 1544 C 2805 1574.9279488 2691.0564816 1600 2550.5 1600 C 2409.9435184 1600 2296 1574.9279488 2296 1544 Z"></path></g><g transform="translate(-902,-446) scale(1,1)"><path fill="none" stroke="#000000" d="M 2296 1544 C 2296 1513.0720512 2409.9435184 1488 2550.5 1488 C 2691.0564816 1488 2805 1513.0720512 2805 1544 C 2805 1574.9279488 2691.0564816 1600 2550.5 1600 C 2409.9435184 1600 2296 1574.9279488 2296 1544 Z" stroke-miterlimit="10"></path></g><g transform="translate(-902,-446) scale(1,1)"><g><path fill="none" stroke="none"></path><text fill="#000000" stroke="none" font-family="Arial" font-size="13px" font-style="normal" font-weight="bold" text-decoration="none" x="2393.5" y="1551">Verificar que la cantidad sea positiva mayor al balance</text></g></g><g transform="translate(-902,-446) scale(1,1)"><path fill="#C0C0C0" stroke="none" d="M 2327 1786.5 C 2327 1753.6390544 2409.6034544 1727 2511.5 1727 C 2613.3965456 1727 2696 1753.6390544 2696 1786.5 C 2696 1819.3609456 2613.3965456 1846 2511.5 1846 C 2409.6034544 1846 2327 1819.3609456 2327 1786.5 Z" opacity="0.2"></path></g><g transform="translate(-902,-446) scale(1,1)"><path fill="#ffffff" stroke="none" d="M 2320 1779.5 C 2320 1746.6390544 2402.6034544 1720 2504.5 1720 C 2606.3965456 1720 2689 1746.6390544 2689 1779.5 C 2689 1812.3609456 2606.3965456 1839 2504.5 1839 C 2402.6034544 1839 2320 1812.3609456 2320 1779.5 Z"></path></g><g transform="translate(-902,-446) scale(1,1)"><path fill="none" stroke="#000000" d="M 2320 1779.5 C 2320 1746.6390544 2402.6034544 1720 2504.5 1720 C 2606.3965456 1720 2689 1746.6390544 2689 1779.5 C 2689 1812.3609456 2606.3965456 1839 2504.5 1839 C 2402.6034544 1839 2320 1812.3609456 2320 1779.5 Z" stroke-miterlimit="10"></path></g><g transform="translate(-902,-446) scale(1,1)"><g><path fill="none" stroke="none"></path><text fill="#000000" stroke="none" font-family="Arial" font-size="13px" font-style="normal" font-weight="bold" text-decoration="none" x="2392.5" y="1786.5">Ingresar y verificar dirección de destino</text></g></g><g transform="translate(-902,-446) scale(1,1)"><path fill="none" stroke="#000000" d="M 2426 1951 L 2066 1697" stroke-miterlimit="10" stroke-dasharray="3"></path></g><g transform="translate(-902,-446) scale(1,1)"><path fill="none" stroke="#000000" d="M 2076.730664940971 1699.4192622686708 L 2066 1697 L 2071.8770491907553 1706.2984027020473" stroke-miterlimit="10"></path></g><g transform="translate(-902,-446) scale(1,1)"><g><path fill="none" stroke="none"></path><text fill="#000000" stroke="none" font-family="Arial" font-size="13px" font-style="normal" font-weight="normal" text-decoration="none" x="2201.5" y="1854.5">«extend»</text></g></g><g transform="translate(-902,-446) scale(1,1)"><path fill="#C0C0C0" stroke="none" d="M 2047 2014.5 C 2047 1988.266472 2091.5476624 1967 2146.5 1967 C 2201.4523376 1967 2246 1988.266472 2246 2014.5 C 2246 2040.733528 2201.4523376 2062 2146.5 2062 C 2091.5476624 2062 2047 2040.733528 2047 2014.5 Z" opacity="0.2"></path></g><g transform="translate(-902,-446) scale(1,1)"><path fill="#ffffff" stroke="none" d="M 2040 2007.5 C 2040 1981.266472 2084.5476624 1960 2139.5 1960 C 2194.4523376 1960 2239 1981.266472 2239 2007.5 C 2239 2033.733528 2194.4523376 2055 2139.5 2055 C 2084.5476624 2055 2040 2033.733528 2040 2007.5 Z"></path></g><g transform="translate(-902,-446) scale(1,1)"><path fill="none" stroke="#000000" d="M 2040 2007.5 C 2040 1981.266472 2084.5476624 1960 2139.5 1960 C 2194.4523376 1960 2239 1981.266472 2239 2007.5 C 2239 2033.733528 2194.4523376 2055 2139.5 2055 C 2084.5476624 2055 2040 2033.733528 2040 2007.5 Z" stroke-miterlimit="10"></path></g><g transform="translate(-902,-446) scale(1,1)"><g><path fill="none" stroke="none"></path><text fill="#000000" stroke="none" font-family="Arial" font-size="13px" font-style="normal" font-weight="bold" text-decoration="none" x="2116" y="2014.5">Balance</text></g></g><g transform="translate(-902,-446) scale(1,1)"><path fill="#C0C0C0" stroke="none" d="M 2239 2135 C 2239 2108.4903296 2293.3973968 2087 2360.5 2087 C 2427.6026032 2087 2482 2108.4903296 2482 2135 C 2482 2161.5096704 2427.6026032 2183 2360.5 2183 C 2293.3973968 2183 2239 2161.5096704 2239 2135 Z" opacity="0.2"></path></g><g transform="translate(-902,-446) scale(1,1)"><path fill="#ffffff" stroke="none" d="M 2232 2128 C 2232 2101.4903296 2286.3973968 2080 2353.5 2080 C 2420.6026032 2080 2475 2101.4903296 2475 2128 C 2475 2154.5096704 2420.6026032 2176 2353.5 2176 C 2286.3973968 2176 2232 2154.5096704 2232 2128 Z"></path></g><g transform="translate(-902,-446) scale(1,1)"><path fill="none" stroke="#000000" d="M 2232 2128 C 2232 2101.4903296 2286.3973968 2080 2353.5 2080 C 2420.6026032 2080 2475 2101.4903296 2475 2128 C 2475 2154.5096704 2420.6026032 2176 2353.5 2176 C 2286.3973968 2176 2232 2154.5096704 2232 2128 Z" stroke-miterlimit="10"></path></g><g transform="translate(-902,-446) scale(1,1)"><g><path fill="none" stroke="none"></path><text fill="#000000" stroke="none" font-family="Arial" font-size="13px" font-style="normal" font-weight="bold" text-decoration="none" x="2278.5" y="2135">Historial de transacciones</text></g></g><g transform="translate(-902,-446) scale(1,1)"><path fill="#C0C0C0" stroke="none" d="M 2559 2211 C 2559 2177.862912 2612.725824 2151 2679 2151 C 2745.274176 2151 2799 2177.862912 2799 2211 C 2799 2244.137088 2745.274176 2271 2679 2271 C 2612.725824 2271 2559 2244.137088 2559 2211 Z" opacity="0.2"></path></g><g transform="translate(-902,-446) scale(1,1)"><path fill="#ffffff" stroke="none" d="M 2552 2204 C 2552 2170.862912 2605.725824 2144 2672 2144 C 2738.274176 2144 2792 2170.862912 2792 2204 C 2792 2237.137088 2738.274176 2264 2672 2264 C 2605.725824 2264 2552 2237.137088 2552 2204 Z"></path></g><g transform="translate(-902,-446) scale(1,1)"><path fill="none" stroke="#000000" d="M 2552 2204 C 2552 2170.862912 2605.725824 2144 2672 2144 C 2738.274176 2144 2792 2170.862912 2792 2204 C 2792 2237.137088 2738.274176 2264 2672 2264 C 2605.725824 2264 2552 2237.137088 2552 2204 Z" stroke-miterlimit="10"></path></g><g transform="translate(-902,-446) scale(1,1)"><g><path fill="none" stroke="none"></path><text fill="#000000" stroke="none" font-family="Arial" font-size="13px" font-style="normal" font-weight="bold" text-decoration="none" x="2624.5" y="2211">Datos de cuenta</text></g></g><g transform="translate(-902,-446) scale(1,1)"><path fill="none" stroke="#000000" d="M 2057 2256 L 2551 2214" stroke-miterlimit="10" stroke-dasharray="3"></path></g><g transform="translate(-902,-446) scale(1,1)"><path fill="none" stroke="#000000" d="M 2541.2304650433607 2219.0553127233634 L 2551 2214 L 2540.517249675412 2210.6665414908302" stroke-miterlimit="10"></path></g><g transform="translate(-902,-446) scale(1,1)"><g><path fill="none" stroke="none"></path><text fill="#000000" stroke="none" font-family="Arial" font-size="13px" font-style="normal" font-weight="normal" text-decoration="none" x="2273.5" y="2211.5">«include»</text></g></g><g transform="translate(-902,-446) scale(1,1)"><path fill="#C0C0C0" stroke="none" d="M 1879 1655 C 1879 1628.4903296 1934.5166848 1607 2003 1607 C 2071.4833152 1607 2127 1628.4903296 2127 1655 C 2127 1681.5096704 2071.4833152 1703 2003 1703 C 1934.5166848 1703 1879 1681.5096704 1879 1655 Z" opacity="0.2"></path></g><g transform="translate(-902,-446) scale(1,1)"><path fill="#ffffff" stroke="none" d="M 1872 1648 C 1872 1621.4903296 1927.5166848 1600 1996 1600 C 2064.4833152 1600 2120 1621.4903296 2120 1648 C 2120 1674.5096704 2064.4833152 1696 1996 1696 C 1927.5166848 1696 1872 1674.5096704 1872 1648 Z"></path></g><g transform="translate(-902,-446) scale(1,1)"><path fill="none" stroke="#000000" d="M 1872 1648 C 1872 1621.4903296 1927.5166848 1600 1996 1600 C 2064.4833152 1600 2120 1621.4903296 2120 1648 C 2120 1674.5096704 2064.4833152 1696 1996 1696 C 1927.5166848 1696 1872 1674.5096704 1872 1648 Z" stroke-miterlimit="10"></path></g><g transform="translate(-902,-446) scale(1,1)"><g><path fill="none" stroke="none"></path><text fill="#000000" stroke="none" font-family="Arial" font-size="13px" font-style="normal" font-weight="bold" text-decoration="none" x="1976" y="1655">Bitcoin</text></g></g><g transform="translate(-902,-446) scale(1,1)"><path fill="#C0C0C0" stroke="none" d="M 1391 1602.5 C 1391 1569.6390544 1462.4105744 1543 1550.5 1543 C 1638.5894256 1543 1710 1569.6390544 1710 1602.5 C 1710 1635.3609456 1638.5894256 1662 1550.5 1662 C 1462.4105744 1662 1391 1635.3609456 1391 1602.5 Z" opacity="0.2"></path></g><g transform="translate(-902,-446) scale(1,1)"><path fill="#ffffff" stroke="none" d="M 1384 1595.5 C 1384 1562.6390544 1455.4105744 1536 1543.5 1536 C 1631.5894256 1536 1703 1562.6390544 1703 1595.5 C 1703 1628.3609456 1631.5894256 1655 1543.5 1655 C 1455.4105744 1655 1384 1628.3609456 1384 1595.5 Z"></path></g><g transform="translate(-902,-446) scale(1,1)"><path fill="none" stroke="#000000" d="M 1384 1595.5 C 1384 1562.6390544 1455.4105744 1536 1543.5 1536 C 1631.5894256 1536 1703 1562.6390544 1703 1595.5 C 1703 1628.3609456 1631.5894256 1655 1543.5 1655 C 1455.4105744 1655 1384 1628.3609456 1384 1595.5 Z" stroke-miterlimit="10"></path></g><g transform="translate(-902,-446) scale(1,1)"><g><path fill="none" stroke="none"></path><text fill="#000000" stroke="none" font-family="Arial" font-size="13px" font-style="normal" font-weight="bold" text-decoration="none" x="1484.5" y="1602.5">Realizar transacción</text></g></g><g transform="translate(-902,-446) scale(1,1)"><path fill="#C0C0C0" stroke="none" d="M 1855 1783 C 1855 1756.4903296 1905.1441024 1735 1967 1735 C 2028.8558976 1735 2079 1756.4903296 2079 1783 C 2079 1809.5096704 2028.8558976 1831 1967 1831 C 1905.1441024 1831 1855 1809.5096704 1855 1783 Z" opacity="0.2"></path></g><g transform="translate(-902,-446) scale(1,1)"><path fill="#ffffff" stroke="none" d="M 1848 1776 C 1848 1749.4903296 1898.1441024 1728 1960 1728 C 2021.8558976 1728 2072 1749.4903296 2072 1776 C 2072 1802.5096704 2021.8558976 1824 1960 1824 C 1898.1441024 1824 1848 1802.5096704 1848 1776 Z"></path></g><g transform="translate(-902,-446) scale(1,1)"><path fill="none" stroke="#000000" d="M 1848 1776 C 1848 1749.4903296 1898.1441024 1728 1960 1728 C 2021.8558976 1728 2072 1749.4903296 2072 1776 C 2072 1802.5096704 2021.8558976 1824 1960 1824 C 1898.1441024 1824 1848 1802.5096704 1848 1776 Z" stroke-miterlimit="10"></path></g><g transform="translate(-902,-446) scale(1,1)"><g><path fill="none" stroke="none"></path><text fill="#000000" stroke="none" font-family="Arial" font-size="13px" font-style="normal" font-weight="bold" text-decoration="none" x="1932" y="1783">Ethereum</text></g></g><g transform="translate(-902,-446) scale(1,1)"><path fill="#C0C0C0" stroke="none" d="M 1863 2271 C 1863 2240.0720512 1907.77152 2215 1963 2215 C 2018.22848 2215 2063 2240.0720512 2063 2271 C 2063 2301.9279488 2018.22848 2327 1963 2327 C 1907.77152 2327 1863 2301.9279488 1863 2271 Z" opacity="0.2"></path></g><g transform="translate(-902,-446) scale(1,1)"><path fill="#ffffff" stroke="none" d="M 1856 2264 C 1856 2233.0720512 1900.77152 2208 1956 2208 C 2011.22848 2208 2056 2233.0720512 2056 2264 C 2056 2294.9279488 2011.22848 2320 1956 2320 C 1900.77152 2320 1856 2294.9279488 1856 2264 Z"></path></g><g transform="translate(-902,-446) scale(1,1)"><path fill="none" stroke="#000000" d="M 1856 2264 C 1856 2233.0720512 1900.77152 2208 1956 2208 C 2011.22848 2208 2056 2233.0720512 2056 2264 C 2056 2294.9279488 2011.22848 2320 1956 2320 C 1900.77152 2320 1856 2294.9279488 1856 2264 Z" stroke-miterlimit="10"></path></g><g transform="translate(-902,-446) scale(1,1)"><g><path fill="none" stroke="none"></path><text fill="#000000" stroke="none" font-family="Arial" font-size="13px" font-style="normal" font-weight="bold" text-decoration="none" x="1928.5" y="2271">Consultar</text></g></g><g transform="translate(-902,-446) scale(1,1)"><path fill="none" stroke="#000000" d="M 3311 1429 L 2722 2143" stroke-miterlimit="10"></path></g><g transform="translate(-902,-446) scale(1,1)"><path fill="none" stroke="#000000" d="M 2725.219805258421 2132.4817846524306 L 2722 2143 L 2731.7142475305764 2137.8392447340825" stroke-miterlimit="10"></path></g><g transform="translate(-902,-446) scale(1,1)"><path fill="#C0C0C0" stroke="none" d="M 1663 699 C 1663 670.2811904 1712.4725296 647 1773.5 647 C 1834.5274704 647 1884 670.2811904 1884 699 C 1884 727.7188096 1834.5274704 751 1773.5 751 C 1712.4725296 751 1663 727.7188096 1663 699 Z" opacity="0.2"></path></g><g transform="translate(-902,-446) scale(1,1)"><path fill="#ffffff" stroke="none" d="M 1656 692 C 1656 663.2811904 1705.4725296 640 1766.5 640 C 1827.5274704 640 1877 663.2811904 1877 692 C 1877 720.7188096 1827.5274704 744 1766.5 744 C 1705.4725296 744 1656 720.7188096 1656 692 Z"></path></g><g transform="translate(-902,-446) scale(1,1)"><path fill="none" stroke="#000000" d="M 1656 692 C 1656 663.2811904 1705.4725296 640 1766.5 640 C 1827.5274704 640 1877 663.2811904 1877 692 C 1877 720.7188096 1827.5274704 744 1766.5 744 C 1705.4725296 744 1656 720.7188096 1656 692 Z" stroke-miterlimit="10"></path></g><g transform="translate(-902,-446) scale(1,1)"><g><path fill="none" stroke="none"></path><text fill="#000000" stroke="none" font-family="Arial" font-size="13px" font-style="normal" font-weight="bold" text-decoration="none" x="1711" y="699">Crear nueva cuenta</text></g></g><g transform="translate(-902,-446) scale(1,1)"><path fill="#C0C0C0" stroke="none" d="M 1863 1011 C 1863 986.6994688 1928.8141344 967 2010 967 C 2091.1858656 967 2157 986.6994688 2157 1011 C 2157 1035.3005312 2091.1858656 1055 2010 1055 C 1928.8141344 1055 1863 1035.3005312 1863 1011 Z" opacity="0.2"></path></g><g transform="translate(-902,-446) scale(1,1)"><path fill="#ffffff" stroke="none" d="M 1856 1004 C 1856 979.6994688 1921.8141344 960 2003 960 C 2084.1858656 960 2150 979.6994688 2150 1004 C 2150 1028.3005312 2084.1858656 1048 2003 1048 C 1921.8141344 1048 1856 1028.3005312 1856 1004 Z"></path></g><g transform="translate(-902,-446) scale(1,1)"><path fill="none" stroke="#000000" d="M 1856 1004 C 1856 979.6994688 1921.8141344 960 2003 960 C 2084.1858656 960 2150 979.6994688 2150 1004 C 2150 1028.3005312 2084.1858656 1048 2003 1048 C 1921.8141344 1048 1856 1028.3005312 1856 1004 Z" stroke-miterlimit="10"></path></g><g transform="translate(-902,-446) scale(1,1)"><g><path fill="none" stroke="none"></path><text fill="#000000" stroke="none" font-family="Arial" font-size="13px" font-style="normal" font-weight="bold" text-decoration="none" x="1913.5" y="1011">Verificar métodos de seguridad</text></g></g><g transform="translate(-902,-446) scale(1,1)"><path fill="#C0C0C0" stroke="none" d="M 1999 810.5 C 1999 782.0573328 2070.8582896 759 2159.5 759 C 2248.1417104 759 2320 782.0573328 2320 810.5 C 2320 838.9426672 2248.1417104 862 2159.5 862 C 2070.8582896 862 1999 838.9426672 1999 810.5 Z" opacity="0.2"></path></g><g transform="translate(-902,-446) scale(1,1)"><path fill="#ffffff" stroke="none" d="M 1992 803.5 C 1992 775.0573328 2063.8582896 752 2152.5 752 C 2241.1417104 752 2313 775.0573328 2313 803.5 C 2313 831.9426672 2241.1417104 855 2152.5 855 C 2063.8582896 855 1992 831.9426672 1992 803.5 Z"></path></g><g transform="translate(-902,-446) scale(1,1)"><path fill="none" stroke="#000000" d="M 1992 803.5 C 1992 775.0573328 2063.8582896 752 2152.5 752 C 2241.1417104 752 2313 775.0573328 2313 803.5 C 2313 831.9426672 2241.1417104 855 2152.5 855 C 2063.8582896 855 1992 831.9426672 1992 803.5 Z" stroke-miterlimit="10"></path></g><g transform="translate(-902,-446) scale(1,1)"><g><path fill="none" stroke="none"></path><text fill="#000000" stroke="none" font-family="Arial" font-size="13px" font-style="normal" font-weight="bold" text-decoration="none" x="2059" y="810.5">Identificar y autenticar al usuario</text></g></g><g transform="translate(-902,-446) scale(1,1)"><path fill="#ffffff" stroke="none" d="M 2599.961090909091 3186.3199999999997 C 2599.961090909091 3163.499592064 2617.663261500509 3145 2639.5 3145 C 2661.336738499491 3145 2679.038909090909 3163.499592064 2679.038909090909 3186.3199999999997 C 2679.038909090909 3209.1404079359995 2661.336738499491 3227.64 2639.5 3227.64 C 2617.663261500509 3227.64 2599.961090909091 3209.1404079359995 2599.961090909091 3186.3199999999997 Z"></path></g><g transform="translate(-902,-446) scale(1,1)"><path fill="none" stroke="#000000" d="M 2599.961090909091 3186.3199999999997 C 2599.961090909091 3163.499592064 2617.663261500509 3145 2639.5 3145 C 2661.336738499491 3145 2679.038909090909 3163.499592064 2679.038909090909 3186.3199999999997 C 2679.038909090909 3209.1404079359995 2661.336738499491 3227.64 2639.5 3227.64 C 2617.663261500509 3227.64 2599.961090909091 3209.1404079359995 2599.961090909091 3186.3199999999997 Z" stroke-miterlimit="10"></path></g><g transform="translate(-902,-446) scale(1,1)"><path fill="none" stroke="#000000" d="M 2639.5 3227.64 L 2639.5 3306.36" stroke-miterlimit="10"></path></g><g transform="translate(-902,-446) scale(1,1)"><path fill="none" stroke="#000000" d="M 2597.635272727273 3257.16 L 2681.364727272727 3257.16" stroke-miterlimit="10"></path></g><g transform="translate(-902,-446) scale(1,1)"><path fill="none" stroke="#000000" d="M 2639.5 3306.36 L 2581.3545454545456 3389" stroke-miterlimit="10"></path></g><g transform="translate(-902,-446) scale(1,1)"><path fill="none" stroke="#000000" d="M 2639.5 3306.36 L 2697.6454545454544 3389" stroke-miterlimit="10"></path></g><g transform="translate(-902,-446) scale(1,1)"><g><path fill="none" stroke="none"></path><text fill="#000000" stroke="none" font-family="Arial" font-size="13px" font-style="normal" font-weight="bold" text-decoration="none" x="2592" y="3409.5">Sistema externo</text></g></g><g transform="translate(-902,-446) scale(1,1)"><path fill="none" stroke="#000000" d="M 2605 3143 L 2365 2177" stroke-miterlimit="10"></path></g><g transform="translate(-902,-446) scale(1,1)"><path fill="none" stroke="#000000" d="M 2371.5357143251476 2185.847849357898 L 2365 2177 L 2363.3650736393233 2187.877822199097" stroke-miterlimit="10"></path></g><g transform="translate(-902,-446) scale(1,1)"><path fill="none" stroke="#000000" d="M 2586 3143 L 2158 2056" stroke-miterlimit="10"></path></g><g transform="translate(-902,-446) scale(1,1)"><path fill="none" stroke="#000000" d="M 2165.640103308463 2063.9138373394967 L 2158 2056 L 2157.8064408104146 2066.9982969063453" stroke-miterlimit="10"></path></g><g transform="translate(-902,-446) scale(1,1)"><path fill="#C0C0C0" stroke="none" d="M 1559 1171 C 1559 1137.862912 1616.3075456 1111 1687 1111 C 1757.6924544 1111 1815 1137.862912 1815 1171 C 1815 1204.137088 1757.6924544 1231 1687 1231 C 1616.3075456 1231 1559 1204.137088 1559 1171 Z" opacity="0.2"></path></g><g transform="translate(-902,-446) scale(1,1)"><path fill="#ffffff" stroke="none" d="M 1552 1164 C 1552 1130.862912 1609.3075456 1104 1680 1104 C 1750.6924544 1104 1808 1130.862912 1808 1164 C 1808 1197.137088 1750.6924544 1224 1680 1224 C 1609.3075456 1224 1552 1197.137088 1552 1164 Z"></path></g><g transform="translate(-902,-446) scale(1,1)"><path fill="none" stroke="#000000" d="M 1552 1164 C 1552 1130.862912 1609.3075456 1104 1680 1104 C 1750.6924544 1104 1808 1130.862912 1808 1164 C 1808 1197.137088 1750.6924544 1224 1680 1224 C 1609.3075456 1224 1552 1197.137088 1552 1164 Z" stroke-miterlimit="10"></path></g><g transform="translate(-902,-446) scale(1,1)"><g><path fill="none" stroke="none"></path><text fill="#000000" stroke="none" font-family="Arial" font-size="13px" font-style="normal" font-weight="bold" text-decoration="none" x="1602.5" y="1171">Modificar datos personales</text></g></g><g transform="translate(-902,-446) scale(1,1)"><path fill="none" stroke="#000000" d="M 1681 1103 L 1683 897" stroke-miterlimit="10" stroke-dasharray="3"></path></g><g transform="translate(-902,-446) scale(1,1)"><path fill="none" stroke="#000000" d="M 1687.1106572799538 907.2030631051053 L 1683 897 L 1678.692018527295 907.1213287482834" stroke-miterlimit="10"></path></g><g transform="translate(-902,-446) scale(1,1)"><path fill="none" stroke="#000000" d="M 1561 975 L 1634 897" stroke-miterlimit="10" stroke-dasharray="3"></path></g><g transform="translate(-902,-446) scale(1,1)"><path fill="none" stroke="#000000" d="M 1630.1291161771194 907.2964196898612 L 1634 897 L 1623.9822036150124 901.5435399842994" stroke-miterlimit="10"></path></g><g transform="translate(-902,-446) scale(1,1)"><path fill="none" stroke="#000000" d="M 1883 1255 L 1710 897" stroke-miterlimit="10" stroke-dasharray="3"></path></g><g transform="translate(-902,-446) scale(1,1)"><path fill="none" stroke="#000000" d="M 1718.2119601132763 904.3187233243209 L 1710 897 L 1710.6316137906756 907.9818515751866" stroke-miterlimit="10"></path></g><g transform="translate(-902,-446) scale(1,1)"><rect fill="#C0C0C0" stroke="none" x="1351" y="2383" width="338.79999999999995" height="15" opacity="0.2"></rect></g><g transform="translate(-902,-446) scale(1,1)"><rect fill="#C0C0C0" stroke="none" x="1351" y="2397" width="847" height="601" opacity="0.2"></rect></g><g transform="translate(-902,-446) scale(1,1)"><rect fill="#ffffff" stroke="none" x="1344" y="2391" width="847" height="600"></rect></g><g transform="translate(-902,-446) scale(1,1)"><path fill="none" stroke="#000000" d="M 1344 2391 L 2191 2391 L 2191 2991 L 1344 2991 L 1344 2391 Z Z" stroke-miterlimit="10"></path></g><g transform="translate(-902,-446) scale(1,1)"><rect fill="#ffffff" stroke="none" x="1344" y="2376" width="338.79999999999995" height="15"></rect></g><g transform="translate(-902,-446) scale(1,1)"><path fill="none" stroke="#000000" d="M 1344 2376 L 1682.8 2376 L 1682.8 2391 L 1344 2391 L 1344 2376 Z Z" stroke-miterlimit="10"></path></g><g transform="translate(-902,-446) scale(1,1)"><rect fill="#ffffff" stroke="none" x="1344" y="2390" width="847" height="601"></rect></g><g transform="translate(-902,-446) scale(1,1)"><path fill="none" stroke="#000000" d="M 1344 2390 L 2191 2390 L 2191 2991 L 1344 2991 L 1344 2390 Z Z" stroke-miterlimit="10"></path></g><g transform="translate(-902,-446) scale(1,1)"><g><path fill="none" stroke="none"></path><text fill="#000000" stroke="none" font-family="Arial" font-size="13px" font-style="normal" font-weight="bold" text-decoration="none" x="1690.5" y="2410.5">Sistema de administración</text></g></g><g transform="translate(-902,-446) scale(1,1)"><path fill="#ffffff" stroke="none" d="M 1070.2476363636363 2543.44 C 1070.2476363636363 2526.628450688 1083.3443641995636 2513 1099.5 2513 C 1115.6556358004364 2513 1128.7523636363637 2526.628450688 1128.7523636363637 2543.44 C 1128.7523636363637 2560.251549312 1115.6556358004364 2573.88 1099.5 2573.88 C 1083.3443641995636 2573.88 1070.2476363636363 2560.251549312 1070.2476363636363 2543.44 Z"></path></g><g transform="translate(-902,-446) scale(1,1)"><path fill="none" stroke="#000000" d="M 1070.2476363636363 2543.44 C 1070.2476363636363 2526.628450688 1083.3443641995636 2513 1099.5 2513 C 1115.6556358004364 2513 1128.7523636363637 2526.628450688 1128.7523636363637 2543.44 C 1128.7523636363637 2560.251549312 1115.6556358004364 2573.88 1099.5 2573.88 C 1083.3443641995636 2573.88 1070.2476363636363 2560.251549312 1070.2476363636363 2543.44 Z" stroke-miterlimit="10"></path></g><g transform="translate(-902,-446) scale(1,1)"><path fill="none" stroke="#000000" d="M 1099.5 2573.88 L 1099.5 2632.12" stroke-miterlimit="10"></path></g><g transform="translate(-902,-446) scale(1,1)"><path fill="none" stroke="#000000" d="M 1068.5269090909092 2595.72 L 1130.4730909090908 2595.72" stroke-miterlimit="10"></path></g><g transform="translate(-902,-446) scale(1,1)"><path fill="none" stroke="#000000" d="M 1099.5 2632.12 L 1056.4818181818182 2693" stroke-miterlimit="10"></path></g><g transform="translate(-902,-446) scale(1,1)"><path fill="none" stroke="#000000" d="M 1099.5 2632.12 L 1142.5181818181818 2693" stroke-miterlimit="10"></path></g><g transform="translate(-902,-446) scale(1,1)"><g><path fill="none" stroke="none"></path><text fill="#000000" stroke="none" font-family="Arial" font-size="13px" font-style="normal" font-weight="bold" text-decoration="none" x="1059.5" y="2713.5">Administrador</text></g></g><g transform="translate(-902,-446) scale(1,1)"><path fill="none" stroke="#000000" d="M 1102 2511 L 1129 1553" stroke-miterlimit="10"></path></g><g transform="translate(-902,-446) scale(1,1)"><path fill="#FFFFFF" stroke="none" d="M 1136.8430772810198 1573.5544676108127 L 1129 1553 L 1120.0116896994941 1573.0800965620642"></path></g><g transform="translate(-902,-446) scale(1,1)"><path fill="none" stroke="#000000" d="M 1136.8430772810198 1573.5544676108127 L 1129 1553 L 1120.0116896994941 1573.0800965620642 L 1136.8430772810198 1573.5544676108127" stroke-miterlimit="10"></path></g><g transform="translate(-902,-446) scale(1,1)"><path fill="none" stroke="#000000" d="M 1200 2588 L 1415 2532" stroke-miterlimit="10"></path></g><g transform="translate(-902,-446) scale(1,1)"><path fill="none" stroke="#000000" d="M 1406.2264812602073 2538.6351615596386 L 1415 2532 L 1404.1044176711366 2530.487953137314" stroke-miterlimit="10"></path></g><g transform="translate(-902,-446) scale(1,1)"><path fill="#C0C0C0" stroke="none" d="M 1423 2507 C 1423 2478.2811904 1476.725824 2455 1543 2455 C 1609.274176 2455 1663 2478.2811904 1663 2507 C 1663 2535.7188096 1609.274176 2559 1543 2559 C 1476.725824 2559 1423 2535.7188096 1423 2507 Z" opacity="0.2"></path></g><g transform="translate(-902,-446) scale(1,1)"><path fill="#ffffff" stroke="none" d="M 1416 2500 C 1416 2471.2811904 1469.725824 2448 1536 2448 C 1602.274176 2448 1656 2471.2811904 1656 2500 C 1656 2528.7188096 1602.274176 2552 1536 2552 C 1469.725824 2552 1416 2528.7188096 1416 2500 Z"></path></g><g transform="translate(-902,-446) scale(1,1)"><path fill="none" stroke="#000000" d="M 1416 2500 C 1416 2471.2811904 1469.725824 2448 1536 2448 C 1602.274176 2448 1656 2471.2811904 1656 2500 C 1656 2528.7188096 1602.274176 2552 1536 2552 C 1469.725824 2552 1416 2528.7188096 1416 2500 Z" stroke-miterlimit="10"></path></g><g transform="translate(-902,-446) scale(1,1)"><g><path fill="none" stroke="none"></path><text fill="#000000" stroke="none" font-family="Arial" font-size="13px" font-style="normal" font-weight="bold" text-decoration="none" x="1512.5" y="2507">Eliminar</text></g></g><g transform="translate(-902,-446) scale(1,1)"><path fill="none" stroke="#000000" d="M 1200 2632 L 1399 2664" stroke-miterlimit="10"></path></g><g transform="translate(-902,-446) scale(1,1)"><path fill="none" stroke="#000000" d="M 1388.2979017431442 2666.5426546955105 L 1399 2664 L 1389.634545372241 2658.230402127064" stroke-miterlimit="10"></path></g><g transform="translate(-902,-446) scale(1,1)"><path fill="#C0C0C0" stroke="none" d="M 1399 2894.5 C 1399 2859.4299152 1473.992296 2831 1566.5 2831 C 1659.007704 2831 1734 2859.4299152 1734 2894.5 C 1734 2929.5700848 1659.007704 2958 1566.5 2958 C 1473.992296 2958 1399 2929.5700848 1399 2894.5 Z" opacity="0.2"></path></g><g transform="translate(-902,-446) scale(1,1)"><path fill="#ffffff" stroke="none" d="M 1392 2887.5 C 1392 2852.4299152 1466.992296 2824 1559.5 2824 C 1652.007704 2824 1727 2852.4299152 1727 2887.5 C 1727 2922.5700848 1652.007704 2951 1559.5 2951 C 1466.992296 2951 1392 2922.5700848 1392 2887.5 Z"></path></g><g transform="translate(-902,-446) scale(1,1)"><path fill="none" stroke="#000000" d="M 1392 2887.5 C 1392 2852.4299152 1466.992296 2824 1559.5 2824 C 1652.007704 2824 1727 2852.4299152 1727 2887.5 C 1727 2922.5700848 1652.007704 2951 1559.5 2951 C 1466.992296 2951 1392 2922.5700848 1392 2887.5 Z" stroke-miterlimit="10"></path></g><g transform="translate(-902,-446) scale(1,1)"><g><path fill="none" stroke="none"></path><text fill="#000000" stroke="none" font-family="Arial" font-size="13px" font-style="normal" font-weight="bold" text-decoration="none" x="1533.5" y="2894.5">Modificar</text></g></g><g transform="translate(-902,-446) scale(1,1)"><path fill="none" stroke="#000000" d="M 1200 2675 L 1451 2823" stroke-miterlimit="10"></path></g><g transform="translate(-902,-446) scale(1,1)"><path fill="none" stroke="#000000" d="M 1440.1077299933293 2821.464274079863 L 1451 2823 L 1444.3839242279412 2814.2120798035953" stroke-miterlimit="10"></path></g><g transform="translate(-902,-446) scale(1,1)"><path fill="#C0C0C0" stroke="none" d="M 1879 2519 C 1879 2488.0720512 1934.5166848 2463 2003 2463 C 2071.4833152 2463 2127 2488.0720512 2127 2519 C 2127 2549.9279488 2071.4833152 2575 2003 2575 C 1934.5166848 2575 1879 2549.9279488 1879 2519 Z" opacity="0.2"></path></g><g transform="translate(-902,-446) scale(1,1)"><path fill="#ffffff" stroke="none" d="M 1872 2512 C 1872 2481.0720512 1927.5166848 2456 1996 2456 C 2064.4833152 2456 2120 2481.0720512 2120 2512 C 2120 2542.9279488 2064.4833152 2568 1996 2568 C 1927.5166848 2568 1872 2542.9279488 1872 2512 Z"></path></g><g transform="translate(-902,-446) scale(1,1)"><path fill="none" stroke="#000000" d="M 1872 2512 C 1872 2481.0720512 1927.5166848 2456 1996 2456 C 2064.4833152 2456 2120 2481.0720512 2120 2512 C 2120 2542.9279488 2064.4833152 2568 1996 2568 C 1927.5166848 2568 1872 2542.9279488 1872 2512 Z" stroke-miterlimit="10"></path></g><g transform="translate(-902,-446) scale(1,1)"><g><path fill="none" stroke="none"></path><text fill="#000000" stroke="none" font-family="Arial" font-size="13px" font-style="normal" font-weight="bold" text-decoration="none" x="1974" y="2519">Usuario</text></g></g><g transform="translate(-902,-446) scale(1,1)"><path fill="none" stroke="#000000" d="M 1657 2503 L 1871 2509" stroke-miterlimit="10" stroke-dasharray="3"></path></g><g transform="translate(-902,-446) scale(1,1)"><path fill="none" stroke="#000000" d="M 1860.7233397014638 2512.9230413085374 L 1871 2509 L 1860.9592947028127 2504.5073129270963" stroke-miterlimit="10"></path></g><g transform="translate(-902,-446) scale(1,1)"><g><path fill="none" stroke="none"></path><text fill="#000000" stroke="none" font-family="Arial" font-size="13px" font-style="normal" font-weight="normal" text-decoration="none" x="1736.5" y="2482.5">«include»</text></g></g><g transform="translate(-902,-446) scale(1,1)"><path fill="none" stroke="#000000" d="M 1604 2553 L 1911 2791" stroke-miterlimit="10" stroke-dasharray="3"></path></g><g transform="translate(-902,-446) scale(1,1)"><path fill="none" stroke="#000000" d="M 1900.3890799212734 2788.100280171659 L 1911 2791 L 1905.5473580118648 2781.4465349035427" stroke-miterlimit="10"></path></g><g transform="translate(-902,-446) scale(1,1)"><g><path fill="none" stroke="none"></path><text fill="#000000" stroke="none" font-family="Arial" font-size="13px" font-style="normal" font-weight="normal" text-decoration="none" x="1747.5" y="2654.5">«include»</text></g></g><g transform="translate(-902,-446) scale(1,1)"><path fill="none" stroke="#000000" d="M 1680 2633 L 1871 2560" stroke-miterlimit="10" stroke-dasharray="3"></path></g><g transform="translate(-902,-446) scale(1,1)"><path fill="none" stroke="#000000" d="M 1863.009895575103 2567.5603062953323 L 1871 2560 L 1860.00419912949 2559.6960868280435" stroke-miterlimit="10"></path></g><g transform="translate(-902,-446) scale(1,1)"><g><path fill="none" stroke="none"></path><text fill="#000000" stroke="none" font-family="Arial" font-size="13px" font-style="normal" font-weight="normal" text-decoration="none" x="1736.5" y="2573.5">«include»</text></g></g><g transform="translate(-902,-446) scale(1,1)"><path fill="none" stroke="#000000" d="M 1680 2740 L 1879 2815" stroke-miterlimit="10" stroke-dasharray="3"></path></g><g transform="translate(-902,-446) scale(1,1)"><path fill="none" stroke="#000000" d="M 1868.0057295491715 2815.3549890900304 L 1879 2815 L 1870.9748616172126 2807.476892002828" stroke-miterlimit="10"></path></g><g transform="translate(-902,-446) scale(1,1)"><g><path fill="none" stroke="none"></path><text fill="#000000" stroke="none" font-family="Arial" font-size="13px" font-style="normal" font-weight="normal" text-decoration="none" x="1761.5" y="2754.5">«include»</text></g></g><g transform="translate(-902,-446) scale(1,1)"><path fill="#C0C0C0" stroke="none" d="M 1407 2694.5 C 1407 2659.4299152 1469.4562704 2631 1546.5 2631 C 1623.5437296 2631 1686 2659.4299152 1686 2694.5 C 1686 2729.5700848 1623.5437296 2758 1546.5 2758 C 1469.4562704 2758 1407 2729.5700848 1407 2694.5 Z" opacity="0.2"></path></g><g transform="translate(-902,-446) scale(1,1)"><path fill="#ffffff" stroke="none" d="M 1400 2687.5 C 1400 2652.4299152 1462.4562704 2624 1539.5 2624 C 1616.5437296 2624 1679 2652.4299152 1679 2687.5 C 1679 2722.5700848 1616.5437296 2751 1539.5 2751 C 1462.4562704 2751 1400 2722.5700848 1400 2687.5 Z"></path></g><g transform="translate(-902,-446) scale(1,1)"><path fill="none" stroke="#000000" d="M 1400 2687.5 C 1400 2652.4299152 1462.4562704 2624 1539.5 2624 C 1616.5437296 2624 1679 2652.4299152 1679 2687.5 C 1679 2722.5700848 1616.5437296 2751 1539.5 2751 C 1462.4562704 2751 1400 2722.5700848 1400 2687.5 Z" stroke-miterlimit="10"></path></g><g transform="translate(-902,-446) scale(1,1)"><g><path fill="none" stroke="none"></path><text fill="#000000" stroke="none" font-family="Arial" font-size="13px" font-style="normal" font-weight="bold" text-decoration="none" x="1519" y="2694.5">Buscar</text></g></g><g transform="translate(-902,-446) scale(1,1)"><path fill="#C0C0C0" stroke="none" d="M 1887 2867 C 1887 2829.4446336 1940.725824 2799 2007 2799 C 2073.274176 2799 2127 2829.4446336 2127 2867 C 2127 2904.5553664 2073.274176 2935 2007 2935 C 1940.725824 2935 1887 2904.5553664 1887 2867 Z" opacity="0.2"></path></g><g transform="translate(-902,-446) scale(1,1)"><path fill="#ffffff" stroke="none" d="M 1880 2860 C 1880 2822.4446336 1933.725824 2792 2000 2792 C 2066.274176 2792 2120 2822.4446336 2120 2860 C 2120 2897.5553664 2066.274176 2928 2000 2928 C 1933.725824 2928 1880 2897.5553664 1880 2860 Z"></path></g><g transform="translate(-902,-446) scale(1,1)"><path fill="none" stroke="#000000" d="M 1880 2860 C 1880 2822.4446336 1933.725824 2792 2000 2792 C 2066.274176 2792 2120 2822.4446336 2120 2860 C 2120 2897.5553664 2066.274176 2928 2000 2928 C 1933.725824 2928 1880 2897.5553664 1880 2860 Z" stroke-miterlimit="10"></path></g><g transform="translate(-902,-446) scale(1,1)"><g><path fill="none" stroke="none"></path><text fill="#000000" stroke="none" font-family="Arial" font-size="13px" font-style="normal" font-weight="bold" text-decoration="none" x="1981.5" y="2867">Wallet</text></g></g><g transform="translate(-902,-446) scale(1,1)"><path fill="none" stroke="#000000" d="M 1634 2823 L 1930 2569" stroke-miterlimit="10" stroke-dasharray="3"></path></g><g transform="translate(-902,-446) scale(1,1)"><path fill="none" stroke="#000000" d="M 1925.028896626021 2578.812651590942 L 1930 2569 L 1919.5463066129041 2572.423491575656" stroke-miterlimit="10"></path></g><g transform="translate(-902,-446) scale(1,1)"><g><path fill="none" stroke="none"></path><text fill="#000000" stroke="none" font-family="Arial" font-size="13px" font-style="normal" font-weight="normal" text-decoration="none" x="1734.5" y="2679.5">«include»</text></g></g></g></svg>